<svg id="图层_1" xmlns="http://www.w3.org/2000/svg" viewBox="0 0 640 150"><style>.st0{fill:#424242}.st1{fill:url(#XMLID_29_)}.st2{fill:url(#XMLID_30_)}.st3{fill:url(#XMLID_31_)}.st4{fill:url(#XMLID_32_)}.st5{fill:#ffd100}.st6{fill:url(#XMLID_33_)}</style><g id="logo"><path id="XMLID_9_" class="st0" d="M324.9 117.8l10.8-51.6c.9-4.3-1.7-8.7-6.7-8.6h-12.5l-1.7 7.3h9.7c2.2 0 2.7 1.4 2.2 3.1l-10.6 50.2c-1.3 5.9 2.1 7.7 8.4 7.7h14.3l2-6.5h-14.6c-.9 0-1.5-.5-1.3-1.6M284.7 106h-50.9l-1.7 6H283l1.7-6zm26.6-77.1h-9c-4 5.2-11.7 13.3-16.5 15.4H280c1.2-2 7.8-15.4 7.8-15.4h-9.3l-7.7 15c-5.5-3.7-7.9-10-9.8-15h-10c1.3 3.7 3.6 11.3 7.9 15h-13.8l-1.8 7.5h22.5c-1.5 2.3-2.7 4.3-4.7 6.4h-22.5l-1.8 7.2h18c-5.8 6-13.8 10.7-20 10.7l-1.8 8.1s9.7-1.8 14.4-4.2l-2.7 12.8c-.9 3.8.1 6.6 3.9 6.6h37.7c3 0 3.8 2.1 3.1 5.3l-2.2 8.3c-1.1 4-3 6.2-6.4 6.2h-33.7l-2.3 6.8h34.6c7.8 0 13.4-.7 15.6-9.5l4.2-18.7c.6-2.8-1.8-5-4.3-5l2.4-12.1c1.9 1.5 4.4 2.8 6.7 3.6l2.8-5.8c-5-2.4-10.8-7.6-12.4-12.9h14.4l1.8-7.5H272l4-6.3h31.7l1.7-7.3h-11.1c5-4.5 9.2-9.7 13-15.2M288.7 85l-1.4 7h-33.9l2.6-11.7h29.3c4.7 0 3.6 3.4 3.4 4.7m-3.3-19.6c.3 1.6 3.1 6.5 4.2 7.5h-31.3c2.8-2.2 5.7-5.4 7.4-7.5h19.7zm-55.6-37.1c-2 0-6.3.3-8.3 1.3-.1-.3.1-.8.1-1.2h-8.4L194 115.3c-.5 2.4-1.2 3-1.9 3h-4l-1.7 7.5h7.8c1.8 0 6.1-1.2 7.5-7.8l5.5-25.3h12.2l-5 22.9c-.3 1.4-.5 2.7-1.5 2.7h-5.5l-1.6 7.5h7c1.6 0 7.3.7 9-7.4l17.8-81.5c1.6-6.9-5-8.6-9.8-8.6M221 84.8h-11.9l4.5-21.1h11.9L221 84.8zM231.2 38l-4 18.6h-12l4.1-19c1.4-1.3 5.6-1.8 6.8-1.8 1.1 0 5.5.4 5.1 2.2m160.9 32.9h-21.2l6.5-29.1h-8.5L362.4 71h-21.8l-1.8 7.3h21.8l-10.3 47.5h8.7L369.4 78h20.9l1.8-7.1zm-57.6-21.1l6.6-3.4s-3.6-4.5-7.4-10.5c-3.4-5.7-4-7.5-4-7.5h-8.4s3.1 6.3 4.6 8.9c1.5 2.4 8.6 12.5 8.6 12.5m60.7 66.9l15.2-71.4c1-6.8 2.9-14.5-11.4-14.5h-43.2l-1.7 7.1h39.3c8.6 0 8.8 3.2 7.5 9.4l-15.2 71.2c-.8 4.3.3 7.3 7.6 7.3.5 0 15.9-.2 17.4 0l1.8-7h-15.6c-1.2-.2-2.1-.4-1.7-2.1m145-44l.3-1.5h-8.2l-.3.9c-2.2 7.6-6.2 14-9.7 18.4s-6.4 6.9-6.4 6.9l-.3.3-1.8 10.9 2.4-1.5c.1-.1 18.6-11.4 24-34.4m-94.3-32.6l2.6-11.9h-7.6l-2.8 12.9h7.6l.2-1zm16.7 52.7l.2-1L474 41.5c2.4-2.5 5-3.6 8-3.6h18.6c1.8 0 2.9.4 3.5.8.6.5.9 1.1 1 2.4 0 .6-.1 1.3-.3 2.1l-11.1 49.7h8.3l11.1-50.3c.3-1.1.4-2.2.5-3.2 0-2.6-1.2-4.8-3.4-6.2-2.2-1.3-5.2-1.9-9-1.9H481.6c-2.5 0-4.7.1-6.4.8l-.1-1h-7.5l-13.5 61.8h8.5v-.1zm19.1 24.3c0-.2 0-.4.1-.6l7.2-37.4h-3.4l7.2-35.7h-8.5L477 80.2c-.2.7-1.7 4.8-4.6 10-3.2 5.7-8 12.6-14.6 17.7-6.2 4.7-11.2 7.4-14.6 8.9-1.7.7-3 1.2-3.9 1.5s-1.2.3-1.2.3l-.8.1-2.2 7.7 2-.3c.1 0 24.3-3.8 39.4-25.7l-3.4 16.5c-.2 1.1-.3 2.1-.3 3.1 0 1.8.5 3.5 1.8 4.6s3 1.5 5.2 1.5h27.3l.2-1 1.4-6.1h-24c-2.5-.3-2.9-.7-3-1.9m128.9.6c-3-2.7-9.8-9.8-14.5-22.7l-.3-.8h-1.2l6.9-31.3h-8.3l-6.9 30.3c-.1.4-.8 2.4-2.4 5.2-1.9 3.1-5 7.3-9.9 11.1s-9.4 5.9-12.8 7.1c-3.4 1.2-5.4 1.3-5.4 1.3l-.9.1-2.3 7.8 1.8-.1c.1 0 23.4-1.1 36.2-22.7 8.9 18.7 17.6 22.4 17.9 22.5l1.1.4 3.5-6.4-.9-.6s-.6-.3-1.6-1.2m-165.8-34l.4.4 8.6-.1-1.4-2s-1.2-1.7-2.7-4.2-3.2-5.9-4.2-9.2l-.3-.9-2.7.1 10.3-11.6c0-.1 4.3-3.8 4.4-7.8 0-1.3-.7-2.7-2-3.4-1.4-.8-3.2-1.2-5.9-1.2h-28.1l-1.4 7H447l-31.1 33.7-3.4 14 18.6-19.1-10.4 46.6h8.4l.2-1L440 76.1c2.5 5.4 4.7 7.5 4.8 7.6m135-52.1l-1.4 6.6h22.3c-3.1 6.1-6.5 11.1-8.1 12.3-1.7.5-3.4.8-5.1 1.5l-.1-1.2h-7.5L568.6 102h7.9l.2-1 8.8-40.2c1.4-1.5 2.8-2.5 3.9-2.9 1.1-.5 4.4-.9 7.2-.8H609.8c2.6.2 2.7.8 2.9 2.2 0 .4-.1.8-.2 1.3l-8.7 41.6h7.9l8.4-40c.5-1.6.7-3.2.7-4.6 0-2.4-.8-4.4-2.4-5.7-1.6-1.3-3.8-1.8-6.4-1.8h-9.8c.7-1 1.4-2.1 2.2-3.4 1.4-2.4 3-5.4 4.5-8.6h20.2l.2-1 1.1-5.6-50.6.1zm-10.1 46.7l1.5-2h-10.1l-9.4 12.4 4.6-22.6h16.9l1.5-6.8H557l2.1-10.3h17.2l.2-1 1.3-6.1h-17.2l2.8-13.8h-8.2l-6.5 31.2h-9.1l5-24.1h-8l-5 24.1h-12.5l-1.6 6.8h30.6l-6.8 32h3.1c-6.7 8.7-13.9 13.7-19.6 16.5-3 1.5-5.6 2.4-7.5 2.9-1.8.5-2.8.6-2.8.6l-.9.1-1.4 7.3h1.6c.2 0 22.1-.4 41.1-27.2 6-8.3 14.8-20 14.8-20"/><linearGradient id="XMLID_29_" gradientUnits="userSpaceOnUse" x1="97.716" y1="5.919" x2="97.716" y2="143"><stop offset="0" stop-color="#2cbcef"/><stop offset=".153" stop-color="#23b4ea"/><stop offset=".408" stop-color="#099fdd"/><stop offset=".487" stop-color="#0097d8"/><stop offset=".85" stop-color="#0078c0"/><stop offset=".994" stop-color="#0097d4"/></linearGradient><path id="XMLID_8_" class="st1" d="M33.2 73.9c-.4 18.8.4 37.7 2.9 53.3C39.2 144 53.5 145 67 141.1c33-9.3 67-35.9 86-53.7 16.1-15.2 10.9-24.4-12.3-40.7-31.6-22.1-59.5-34.5-75.8-39.3-10.3-3.1-18.1-1.4-23 5.5-6 8.4-8.3 44.3-8.7 61z"/><linearGradient id="XMLID_30_" gradientUnits="userSpaceOnUse" x1="71.137" y1="20.35" x2="71.137" y2="128.392"><stop offset="0" stop-color="#fab218"/><stop offset=".136" stop-color="#f5a915"/><stop offset=".36" stop-color="#e98f0c"/><stop offset=".487" stop-color="#e17e06"/><stop offset=".85" stop-color="#d96c00"/><stop offset=".994" stop-color="#dd7201"/></linearGradient><path id="XMLID_7_" class="st2" d="M35.9 127.4c0 .1 42.3-4.4 89-40.9 14.2-11.1 6.4-20.9-10.9-31.2-45.9-27.5-75.7-33.8-75.5-33.9v.1c-8.6-2.1-16.4-1.7-20.4 4.2-4.8 7.1-8.3 33.8-8.1 47.6.2 14.6 1.5 29.4 3.7 41.5 3.4 13.8 10.2 15 22.2 12.6"/><linearGradient id="XMLID_31_" gradientUnits="userSpaceOnUse" x1="82.688" y1="21.407" x2="82.688" y2="127.409"><stop offset="0" stop-color="#8de601"/><stop offset=".156" stop-color="#84dd01"/><stop offset=".415" stop-color="#6ac400"/><stop offset=".487" stop-color="#62bc00"/><stop offset=".85" stop-color="#59b104"/><stop offset=".994" stop-color="#6eb706"/></linearGradient><path id="XMLID_6_" class="st3" d="M33.2 75.2c-.4 18.2.3 37.1 2.7 52.2 0 .1 42.3-4.4 89-40.9 14.2-11.1 6.4-20.9-10.9-31.2-45.9-27.5-75.7-33.8-75.5-33.9-4.2 15.4-5 40.9-5.3 53.8z"/><linearGradient id="XMLID_32_" gradientUnits="userSpaceOnUse" x1="76.299" y1="45.048" x2="76.299" y2="103.95"><stop offset="0" stop-color="#fff"/><stop offset=".195" stop-color="#f7f7f6"/><stop offset=".487" stop-color="#e3e5df"/><stop offset=".85" stop-color="#d6d8d0"/><stop offset=".994" stop-color="#e2e4de"/></linearGradient><path id="XMLID_5_" class="st4" d="M59.2 46.1l37.7 23.3c4.1 3.1 3.3 6 0 8.6l-35.3 23.6c-5.3 4.2-8.6 2.4-8.5-2.6l-.2-49.6c-.1-4 2.9-5.6 6.3-3.3z"/><path id="XMLID_4_" class="st5" d="M131.7 72.6c-1.7-5.1-7.4-10.4-17.9-16.7-38-22.7-65-31.1-74.9-33.7-.3-.1-.4 0-.4 0S32.2 21 29.7 21c-5.4 0-9.4 1.8-11.9 5.2.1-.2.3-.4.4-.6 2.4-3.5 6.3-5.2 11.6-5.2 2.5 0 5.4.4 8.5 1.1h.2v-.1c.1 0 .2.1.4.1 9.9 2.5 36.9 10.9 74.8 33.6 11.1 6.7 16.8 12.2 18 17.5z"/><linearGradient id="XMLID_33_" gradientUnits="userSpaceOnUse" x1="38.505" y1="46.907" x2="131.506" y2="46.907"><stop offset="0" stop-color="#c5ff00"/><stop offset=".282" stop-color="#c0f601"/><stop offset=".75" stop-color="#b3dc02"/><stop offset="1" stop-color="#aacc03"/></linearGradient><path id="XMLID_3_" class="st6" d="M131.6 72.2c-1.8-5-7.5-10.2-17.7-16.3-38-22.7-65-31.1-74.9-33.7-.2-.1-.4-.1-.4-.1l.1-.5c.1 0 .2.1.4.1C49 24.2 76 32.6 113.9 55.3c10.5 6.4 16.2 11.8 17.7 16.9z"/><path id="XMLID_2_" class="st0" d="M59.2 46.5l37.7 23.4c1.9 1.4 2.7 2.8 2.8 4.1.1-1.4-.7-3-2.8-4.5L59.2 46.1c-3.4-2.3-6.4-.7-6.3 3.3v.4c-.1-4 2.9-5.6 6.3-3.3z"/></g></svg>